HIERARCHY
ROOT Hips
{
	OFFSET 0.000000 88.474243 0.000000
	CHANNELS 6 Xposition Yposition Zposition Zrotation Yrotation Xrotation 
	JOINT Hips_Spine
	{
		OFFSET 0.000000 0.000000 0.000000
		CHANNELS 3 Zrotation Yrotation Xrotation
		JOINT Spine
		{
			OFFSET 0.005100 8.711998 -0.691000
			CHANNELS 3 Zrotation Yrotation Xrotation
			JOINT Spine1
			{
				OFFSET -0.009200 8.660301 -1.275000
				CHANNELS 3 Zrotation Yrotation Xrotation
				JOINT Spine2
				{
					OFFSET 0.006300 9.852501 -1.857000
					CHANNELS 3 Zrotation Yrotation Xrotation
					JOINT Spine2_Neck
					{
						OFFSET 0.000000 0.000000 0.000000
						CHANNELS 3 Zrotation Yrotation Xrotation
						JOINT Neck
						{
							OFFSET 0.016300 11.420799 -0.263300
							CHANNELS 3 Zrotation Yrotation Xrotation
							End Site #name: Head
							{
								OFFSET -0.019200 9.262405 2.362500
							}
						}
					}
					JOINT Spine2_LeftShoulder
					{
						OFFSET 0.000000 0.000000 0.000000
						CHANNELS 3 Zrotation Yrotation Xrotation
						JOINT LeftShoulder
						{
							OFFSET 5.616900 6.732201 -0.345700
							CHANNELS 3 Zrotation Yrotation Xrotation
							JOINT LeftArm
							{
								OFFSET 10.664888 -0.183372 -2.440700
								CHANNELS 3 Zrotation Yrotation Xrotation
								JOINT LeftForeArm
								{
									OFFSET 27.459126 0.000000 0.000000
									CHANNELS 3 Zrotation Yrotation Xrotation
									End Site #name: LeftHand
									{
										OFFSET 21.306858 0.000000 0.000000
									}
								}
							}
						}
					}
					JOINT Spine2_RightShoulder
					{
						OFFSET 0.000000 0.000000 0.000000
						CHANNELS 3 Zrotation Yrotation Xrotation
						JOINT RightShoulder
						{
							OFFSET -5.580300 6.737503 -0.344400
							CHANNELS 3 Zrotation Yrotation Xrotation
							JOINT RightArm
							{
								OFFSET -10.679335 -0.188484 -2.383900
								CHANNELS 3 Zrotation Yrotation Xrotation
								JOINT RightForeArm
								{
									OFFSET -27.503529 0.000000 0.000000
									CHANNELS 3 Zrotation Yrotation Xrotation
									End Site #name: RightHand
									{
										OFFSET -21.306808 0.000000 0.000000
									}
								}
							}
						}
					}
				}
			}
		}
	}
	JOINT Hips_LeftUpLeg
	{
		OFFSET 0.000000 0.000000 0.000000
		CHANNELS 3 Zrotation Yrotation Xrotation
		JOINT LeftUpLeg
		{
			OFFSET 6.857700 -6.739601 0.312100
			CHANNELS 3 Zrotation Yrotation Xrotation
			JOINT LeftLeg
			{
				OFFSET -0.367590 -34.731552 -4.572400
				CHANNELS 3 Zrotation Yrotation Xrotation
				End Site #name: LeftFoot
				{
					OFFSET 0.367590 -34.656704 -6.067400
				}
			}
		}
	}
	JOINT Hips_RightUpLeg
	{
		OFFSET 0.000000 0.000000 0.000000
		CHANNELS 3 Zrotation Yrotation Xrotation
		JOINT RightUpLeg
		{
			OFFSET -6.876100 -6.733299 0.301000
			CHANNELS 3 Zrotation Yrotation Xrotation
			JOINT RightLeg
			{
				OFFSET 0.347353 -34.795158 -4.515900
				CHANNELS 3 Zrotation Yrotation Xrotation
				End Site #name: RightFoot
				{
					OFFSET -0.347353 -34.589367 -6.070300
				}
			}
		}
	}
}
MOTION
Frames: 12
Frame Time: 0.041667
2.213470 -0.919751 -0.986499 -15.750108 67.901524 -11.435883 0.000000 -0.000000 0.000000 7.561244 -5.731939 4.422740 0.055711 -2.330111 5.249101 0.000000 0.000000 0.000000 1.262776 -1.994869 6.005833 2.145268 -22.184774 0.451621 -0.064322 -2.007624 3.081433 -5.754317 3.598663 -2.714980 -79.082352 -15.864276 4.586128 1.695616 -4.434462 4.047821 0.430787 -3.616436 4.771301 19.975461 16.541753 2.965253 56.173490 7.946231 -13.759016 -178.799141 63.456580 -174.194851 0.000000 0.000000 -0.000000 1.251499 19.899098 -12.308694 -2.022975 -25.307048 -2.389880 0.000000 0.000000 -0.000000 -2.007208 -28.367142 -11.079305 -9.913765 -9.159822 17.895446 
2.254524 -0.933808 -1.012194 -15.453663 67.656220 -11.180337 0.000000 -0.000000 0.000000 7.578763 -5.733482 4.436871 0.024097 -2.305352 5.203787 0.000000 0.000000 0.000000 1.244419 -1.977148 5.964718 2.112867 -22.042406 0.459289 -0.077104 -1.990057 3.057398 -5.768013 3.602507 -2.689935 -79.007954 -16.059676 4.572405 1.659256 -4.378046 3.985198 0.411480 -3.586117 4.743457 20.014871 16.518083 2.972790 56.144497 7.961992 -13.509869 -178.653562 64.311189 -174.035707 0.000000 0.000000 -0.000000 1.255666 19.861321 -12.384541 -2.032750 -25.274162 -2.333282 0.000000 0.000000 -0.000000 -1.946930 -28.199198 -11.072158 -9.896758 -9.262532 17.862858 
2.299140 -0.946535 -1.036068 -15.174598 67.405544 -10.942545 0.000000 -0.000000 0.000000 7.566828 -5.758431 4.460352 -0.020020 -2.281278 5.150087 0.000000 0.000000 0.000000 1.213332 -1.958126 5.922577 2.043769 -21.814603 0.431174 -0.098907 -1.971379 3.029528 -5.782943 3.583052 -2.650964 -78.935637 -16.241284 4.524874 1.613305 -4.330142 3.909045 0.380771 -3.552605 4.711927 20.040870 16.429873 2.978746 56.098421 8.008674 -13.272355 -178.504412 65.131569 -173.873782 0.000000 0.000000 -0.000000 1.257160 19.822680 -12.464351 -2.043786 -25.227201 -2.254403 0.000000 0.000000 -0.000000 -1.902091 -28.005603 -11.056230 -9.850497 -9.367010 17.813827 
2.347891 -0.957977 -1.058437 -14.908333 67.163202 -10.717503 0.000000 -0.000000 0.000000 7.518492 -5.801552 4.500765 -0.076333 -2.258359 5.092157 0.000000 0.000000 0.000000 1.171089 -1.939459 5.879588 1.943169 -21.500181 0.367781 -0.127934 -1.953435 2.998216 -5.797282 3.550436 -2.602356 -78.854563 -16.431522 4.443324 1.552300 -4.291505 3.841380 0.340121 -3.518649 4.676659 20.064526 16.299968 2.987883 56.031990 8.107572 -13.051330 -178.359994 65.845702 -173.718431 0.000000 0.000000 -0.000000 1.258120 19.785809 -12.542050 -2.058377 -25.188509 -2.166539 0.000000 -0.000000 -0.000000 -1.873968 -27.768425 -11.032672 -9.761036 -9.461684 17.747717 
2.401660 -0.968163 -1.079783 -14.655832 66.914770 -10.503960 0.000000 -0.000000 0.000000 7.441572 -5.870451 4.546529 -0.144972 -2.242443 5.034019 0.000000 0.000000 0.000000 1.117396 -1.923086 5.838458 1.824159 -21.095570 0.275249 -0.166085 -1.938162 2.964554 -5.810427 3.498136 -2.545738 -78.788354 -16.588881 4.317600 1.472963 -4.244236 3.764030 0.291175 -3.488498 4.641373 20.068142 16.147708 2.985876 55.934234 8.257396 -12.862584 -178.233607 66.348210 -173.579585 0.000000 0.000000 -0.000000 1.256952 19.750076 -12.625486 -2.079357 -25.152127 -2.058107 0.000000 -0.000000 -0.000000 -1.865214 -27.499292 -10.997437 -9.634072 -9.555434 17.657736 
2.460675 -0.977205 -1.100377 -14.427758 66.679124 -10.315200 0.000000 -0.000000 0.000000 7.328100 -5.973712 4.612191 -0.223308 -2.233449 4.977851 0.000000 0.000000 0.000000 1.056342 -1.911884 5.801782 1.692587 -20.630266 0.163042 -0.210546 -1.928844 2.927428 -5.827202 3.421552 -2.478112 -78.722698 -16.735421 4.143487 1.390309 -4.172759 3.693380 0.232781 -3.465003 4.602431 20.052236 16.003329 2.976323 55.802066 8.483876 -12.748334 -178.159253 66.583021 -173.495177 0.000000 0.000000 -0.000000 1.250199 19.717243 -12.710425 -2.100859 -25.111559 -1.942934 0.000000 -0.000000 -0.000000 -1.872427 -27.201472 -10.967439 -9.477214 -9.649033 17.566948 
2.525570 -0.985369 -1.120298 -14.221143 66.464570 -10.142420 0.000000 -0.000000 0.000000 7.183851 -6.103075 4.703737 -0.308983 -2.235281 4.923342 0.000000 0.000000 0.000000 0.988509 -1.906550 5.770099 1.559019 -20.123872 -0.023126 -0.262747 -1.929166 2.888987 -5.842612 3.316280 -2.400893 -78.670759 -16.881967 3.888293 1.291144 -4.034524 3.610921 0.167391 -3.448897 4.562435 20.031006 15.854911 2.954141 55.646940 8.756372 -12.719099 -178.145778 66.461062 -173.472479 0.000000 0.000000 -0.000000 1.234990 19.686184 -12.804815 -2.127823 -25.073171 -1.811877 0.000000 -0.000000 -0.000000 -1.895223 -26.885204 -10.938942 -9.312451 -9.759166 17.476928 
2.596935 -0.992659 -1.139821 -14.047232 66.310234 -9.998365 0.000000 -0.000000 0.000000 7.007871 -6.242465 4.841440 -0.403129 -2.245883 4.875004 0.000000 0.000000 0.000000 0.910986 -1.905363 5.748084 1.434834 -19.574853 -0.285090 -0.321588 -1.935968 2.852210 -5.846174 3.176101 -2.317630 -78.625219 -17.007257 3.563091 1.179432 -3.843513 3.534631 0.094388 -3.439857 4.526499 20.002927 15.719619 2.920332 55.457175 9.105710 -12.807813 -178.199462 65.983130 -173.516796 0.000000 0.000000 -0.000000 1.207768 19.656013 -12.897263 -2.153454 -25.037180 -1.690530 0.000000 -0.000000 -0.000000 -1.929445 -26.565735 -10.927247 -9.150789 -9.859532 17.401590 
2.675598 -0.999197 -1.158837 -13.905513 66.224929 -9.881625 0.000000 -0.000000 0.000000 6.801902 -6.392516 5.002219 -0.503084 -2.270334 4.808780 0.000000 0.000000 0.000000 0.827906 -1.905866 5.733051 1.289957 -18.964120 -0.591906 -0.386181 -1.949409 2.818013 -5.840991 2.995020 -2.226336 -78.617361 -17.112250 3.136596 1.032194 -3.607826 3.406399 0.014073 -3.434210 4.497927 19.970744 15.610326 2.871423 55.243831 9.492453 -13.008160 -178.317610 65.112623 -173.626653 0.000000 0.000000 -0.000000 1.169054 19.624700 -12.988518 -2.180601 -25.009856 -1.577229 0.000000 -0.000000 -0.000000 -1.970707 -26.257459 -10.930196 -9.009260 -9.970158 17.346018 
2.761636 -1.004856 -1.177215 -13.805335 66.237005 -9.807097 0.000000 -0.000000 0.000000 6.571118 -6.536079 5.198806 -0.608384 -2.302905 4.744657 0.000000 0.000000 0.000000 0.739083 -1.910967 5.729787 1.131890 -18.310590 -0.919238 -0.453601 -1.969831 2.796872 -5.825215 2.766927 -2.121209 -78.639756 -17.183866 2.656405 0.862087 -3.336104 3.254244 -0.117589 -3.428559 4.473598 19.933077 15.541536 2.804067 55.004568 9.932375 -13.350123 -178.491932 63.859835 -173.796420 0.000000 0.000000 -0.000000 1.120446 19.603349 -13.079530 -2.209502 -24.994470 -1.459174 0.000000 -0.000000 -0.000000 -2.017700 -25.942385 -10.945686 -8.861790 -10.016335 17.297904 
2.855005 -1.009395 -1.195284 -13.758255 66.353487 -9.788931 0.000000 -0.000000 0.000000 6.315989 -6.685099 5.417677 -0.716498 -2.344464 4.690222 0.000000 0.000000 0.000000 0.655658 -1.917770 5.735949 0.960506 -17.680007 -1.181591 -0.524823 -1.994525 2.785830 -5.801688 2.500896 -2.011647 -78.713483 -17.201055 2.086605 0.658579 -3.037250 3.062270 -0.259002 -3.428990 4.457177 19.892724 15.531699 2.721144 54.758130 10.374730 -13.809060 -178.693737 62.245856 -173.994091 0.000000 0.000000 -0.000000 1.060652 19.599669 -13.172915 -2.236881 -24.971432 -1.345019 0.000000 -0.000000 -0.000000 -2.066886 -25.566820 -10.969564 -8.687200 -9.981462 17.247152 
2.955680 -1.012768 -1.213284 -13.752902 66.549411 -9.816666 0.000000 -0.000000 0.000000 6.044677 -6.831631 5.664126 -0.810684 -2.390284 4.652447 0.000000 0.000000 0.000000 0.571318 -1.927940 5.754340 0.798410 -17.046441 -1.436088 -0.597753 -2.026055 2.782181 -5.775487 2.220848 -1.901841 -78.818522 -17.179682 1.495804 0.422413 -2.699249 2.838783 -0.399832 -3.437458 4.450303 19.854333 15.558892 2.617901 54.502048 10.830410 -14.391283 -178.914418 60.319100 -174.208837 0.000000 -0.000000 -0.000000 0.990167 19.614815 -13.276312 -2.267196 -24.947855 -1.216596 0.000000 -0.000000 -0.000000 -2.110873 -25.100592 -11.004344 -8.520605 -9.965980 17.192682 
